<?xml version="1.0" encoding="UTF-8"?>
<svg width="460px" height="316px" viewBox="0 0 460 316" version="1.1" xmlns="http://www.w3.org/2000/svg" xmlns:xlink="http://www.w3.org/1999/xlink">
    <title>Group</title>
    <g id="Doc" stroke="none" stroke-width="1" fill="none" fill-rule="evenodd">
        <g id="Large" transform="translate(-573.000000, -126.000000)">
            <g id="Group" transform="translate(573.000000, 126.000000)">
                <rect id="Rectangle" x="0" y="0" width="460" height="316"></rect>
                <g id="Group-3" transform="translate(185.000000, 31.000000)">
                    <text id="User" font-family="Poppins-Bold, Poppins" font-size="16" font-weight="bold" fill="#4B4B4B">
                        <tspan x="24" y="102">User</tspan>
                    </text>
                    <g id="Group-3-Copy-2" fill-rule="nonzero">
                        <path d="M84,10 C84,15.5231658 65.1968212,20 42,20 C18.8031788,20 0,15.5235434 0,10 C0,4.4768342 18.8031788,0 42,0 C65.1968212,0 84,4.4768342 84,10" id="Path" fill="#ED7161"></path>
                        <g id="Group-2" transform="translate(0.000000, 10.000000)">
                            <path d="M42,9.71465253 C18.8031788,9.71465253 0,5.36609469 0,0.000366812133 L0,19.4289382 C0,24.7942993 18.8031788,29.143224 42,29.143224 C65.1968212,29.143224 84,24.7942993 84,19.4285714 L84,0 C84,5.36572788 65.1968212,9.71465253 42,9.71465253" id="Path" fill="#C9554C"></path>
                            <path d="M42,29.1428571 C18.8031788,29.1428571 0,24.7942993 0,19.4285714 L0,38.8571429 C0,44.2225039 18.8031788,48.5714286 42,48.5714286 C65.1968212,48.5714286 84,44.2225039 84,38.8571429 L84,19.4285714 C84,24.7942993 65.1968212,29.1428571 42,29.1428571" id="Path" fill="#ECBA16"></path>
                            <path d="M42,48.5714286 C18.8031788,48.5714286 0,44.2228707 0,38.8571429 L0,58.2857143 C0,63.6510754 18.8031788,68 42,68 C65.1968212,68 84,63.6510754 84,58.2853475 L84,38.856776 C84,44.2225039 65.1968212,48.5714286 42,48.5714286" id="Path" fill="#25AE88"></path>
                        </g>
                    </g>
                </g>
                <g id="Group-3-Copy" transform="translate(46.000000, 181.000000)">
                    <text id="Post" font-family="Poppins-Bold, Poppins" font-size="16" font-weight="bold" fill="#4B4B4B">
                        <tspan x="24" y="102">Post</tspan>
                    </text>
                    <g id="Group-3-Copy-2" fill-rule="nonzero">
                        <path d="M84,10 C84,15.5231658 65.1968212,20 42,20 C18.8031788,20 0,15.5235434 0,10 C0,4.4768342 18.8031788,0 42,0 C65.1968212,0 84,4.4768342 84,10" id="Path" fill="#ED7161"></path>
                        <g id="Group-2" transform="translate(0.000000, 10.000000)">
                            <path d="M42,9.71465253 C18.8031788,9.71465253 0,5.36609469 0,0.000366812133 L0,19.4289382 C0,24.7942993 18.8031788,29.143224 42,29.143224 C65.1968212,29.143224 84,24.7942993 84,19.4285714 L84,0 C84,5.36572788 65.1968212,9.71465253 42,9.71465253" id="Path" fill="#C9554C"></path>
                            <path d="M42,29.1428571 C18.8031788,29.1428571 0,24.7942993 0,19.4285714 L0,38.8571429 C0,44.2225039 18.8031788,48.5714286 42,48.5714286 C65.1968212,48.5714286 84,44.2225039 84,38.8571429 L84,19.4285714 C84,24.7942993 65.1968212,29.1428571 42,29.1428571" id="Path" fill="#ECBA16"></path>
                            <path d="M42,48.5714286 C18.8031788,48.5714286 0,44.2228707 0,38.8571429 L0,58.2857143 C0,63.6510754 18.8031788,68 42,68 C65.1968212,68 84,63.6510754 84,58.2853475 L84,38.856776 C84,44.2225039 65.1968212,48.5714286 42,48.5714286" id="Path" fill="#25AE88"></path>
                        </g>
                    </g>
                </g>
                <g id="Group-4" transform="translate(129.964912, 112.540945) rotate(90.000000) translate(-129.964912, -112.540945) translate(88.464912, 71.040945)" fill="#B0B6BB" fill-rule="nonzero">
                    <path d="M3.62305195,13 C1.87553412,13 0.394748725,11.7033502 0.263293196,9.99694146 C0.087891778,7.7740081 0,5.50542324 0,3.25009204 C0,1.45274844 1.51135644,0 3.37351572,0 C5.235675,0 6.74703145,1.45274844 6.74703145,3.25009204 C6.74703145,5.3430659 6.82804474,7.44561185 6.99007132,9.50287446 C7.13184458,11.2935912 5.73856883,12.8567868 3.88328804,12.9900598 C3.79501412,12.9966866 3.70750448,13 3.62305195,13" id="Path"></path>
                    <path d="M7.38532128,31.3356974 C5.96768923,31.3356974 4.65052828,30.4209876 4.19041629,28.9907698 C3.36723827,26.4324227 2.65861253,23.7827197 2.07709796,21.1092182 C1.68396671,19.2794146 2.83291468,17.4768643 4.64367798,17.0768946 C6.45444128,16.6838342 8.24503425,17.8357622 8.6450158,19.6621111 C9.17591425,22.1187385 9.82745413,24.555022 10.5802263,26.8999496 C11.1548905,28.682156 10.1836699,30.5933354 8.42009754,31.1694912 C8.07758241,31.2815749 7.72821698,31.3356974 7.38532128,31.3356974 M15.6429804,49 C14.5377983,49 13.455831,48.4510973 12.814186,47.4411931 C11.3562133,45.1507719 10.0021368,42.7582472 8.79267788,40.3323276 C7.95960498,38.6583663 8.6313152,36.6220525 10.2875661,35.7818092 C11.943817,34.9450205 13.9627534,35.6190576 14.7992515,37.2895643 C15.9010085,39.5055189 17.1374881,41.687695 18.4679691,43.7819699 C19.4692549,45.3542114 19.0156127,47.451557 17.4567883,48.4614612 C16.8962052,48.8268845 16.2678802,49 15.6429804,49" id="Shape"></path>
                    <path d="M27.758434,64.3953217 C26.970099,64.3953217 26.1749809,64.1085452 25.5396401,63.5253298 C23.5571206,61.6999315 21.6443152,59.7381017 19.8513428,57.6912438 C18.623997,56.2890534 18.737047,54.1293401 20.1041979,52.8705379 C21.4747403,51.6117358 23.5737013,51.7342536 24.8044385,53.133352 C26.434619,54.9997185 28.1774726,56.7872407 29.9806195,58.4421964 C31.3477704,59.7009985 31.4642118,61.8572334 30.2368661,63.2598103 C29.5811763,64.0130818 28.6696167,64.3953217 27.758434,64.3953217 M43.5925887,75.4628863 C43.09027,75.4628863 42.5811684,75.3434605 42.0988218,75.097652 C39.70367,73.859334 37.3586369,72.4876764 35.1232623,71.017077 C33.5797535,70.0002184 33.1305683,67.88843 34.125408,66.3018833 C35.1134646,64.7188149 37.1724813,64.2546389 38.7193816,65.2749759 C40.7584261,66.6191926 42.9007229,67.8749028 45.089747,69.0042304 C46.7331167,69.8502598 47.3918211,71.9009826 46.5665564,73.5829927 C45.9843491,74.7737723 44.8101368,75.4628863 43.5925887,75.4628863 M61.6756839,82 C61.4394095,82 61.2001204,81.9725591 60.9604545,81.9215423 C58.3392027,81.3313701 55.737923,80.6113368 53.2263297,79.7753561 C51.4800846,79.1952327 50.5217978,77.2712791 51.0874244,75.4798919 C51.653051,73.6888913 53.5323183,72.7095224 55.2755487,73.2861674 C57.5810143,74.0502607 59.9727747,74.7123202 62.3845072,75.254954 C64.1774796,75.6576779 65.3151391,77.4761194 64.9224789,79.3185234 C64.5795606,80.9116405 63.2056268,82 61.6756839,82" id="Shape"></path>
                    <path d="M79.7506424,83 C77.4958208,83 75.2244359,82.912138 73.0053175,82.736796 C71.2150054,82.5950707 69.8730075,80.9764997 70.0095629,79.1184091 C70.1461184,77.2603186 71.6765702,75.8507063 73.4959602,76.012678 C75.552758,76.1746497 77.6581415,76.2556356 79.7506424,76.2556356 C81.5442672,76.2556356 83,77.7664802 83,79.6280088 C83,81.4895374 81.5442672,83 79.7506424,83" id="Path"></path>
                </g>
                <g id="Group-5" transform="translate(150.236598, 227.596053)" fill="#B0B6BB" fill-rule="nonzero">
                    <g id="Group-4-Copy-2" transform="translate(6.728314, 3.944891) rotate(90.000000) translate(-6.728314, -3.944891) translate(2.783423, -2.783423)">
                        <path d="M7.19553363,10.228314 C4.94071207,10.228314 2.66932717,10.140452 0.450208785,9.96510996 C-1.34010334,9.82338471 -2.68210129,8.20481366 -2.54554582,6.34672312 C-2.40899035,4.48863258 -0.878538497,3.0790203 0.94085148,3.24099201 C2.99764921,3.40296372 5.10303272,3.48394957 7.19553363,3.48394957 C8.98915843,3.48394957 10.4448913,4.99479416 10.4448913,6.85632278 C10.4448913,8.7178514 8.98915843,10.228314 7.19553363,10.228314" id="Path" transform="translate(3.944891, 6.728314) rotate(86.000000) translate(-3.944891, -6.728314) "></path>
                    </g>
                    <g id="Group-4-Copy-3" transform="translate(26.728314, 3.944891) rotate(90.000000) translate(-26.728314, -3.944891) translate(22.783423, -2.783423)">
                        <path d="M7.19553363,10.228314 C4.94071207,10.228314 2.66932717,10.140452 0.450208785,9.96510996 C-1.34010334,9.82338471 -2.68210129,8.20481366 -2.54554582,6.34672312 C-2.40899035,4.48863258 -0.878538497,3.0790203 0.94085148,3.24099201 C2.99764921,3.40296372 5.10303272,3.48394957 7.19553363,3.48394957 C8.98915843,3.48394957 10.4448913,4.99479416 10.4448913,6.85632278 C10.4448913,8.7178514 8.98915843,10.228314 7.19553363,10.228314" id="Path" transform="translate(3.944891, 6.728314) rotate(86.000000) translate(-3.944891, -6.728314) "></path>
                    </g>
                    <g id="Group-4-Copy-4" transform="translate(46.728314, 3.944891) rotate(90.000000) translate(-46.728314, -3.944891) translate(42.783423, -2.783423)">
                        <path d="M7.19553363,10.228314 C4.94071207,10.228314 2.66932717,10.140452 0.450208785,9.96510996 C-1.34010334,9.82338471 -2.68210129,8.20481366 -2.54554582,6.34672312 C-2.40899035,4.48863258 -0.878538497,3.0790203 0.94085148,3.24099201 C2.99764921,3.40296372 5.10303272,3.48394957 7.19553363,3.48394957 C8.98915843,3.48394957 10.4448913,4.99479416 10.4448913,6.85632278 C10.4448913,8.7178514 8.98915843,10.228314 7.19553363,10.228314" id="Path" transform="translate(3.944891, 6.728314) rotate(86.000000) translate(-3.944891, -6.728314) "></path>
                    </g>
                    <g id="Group-4-Copy-5" transform="translate(66.728314, 3.944891) rotate(90.000000) translate(-66.728314, -3.944891) translate(62.783423, -2.783423)">
                        <path d="M7.19553363,10.228314 C4.94071207,10.228314 2.66932717,10.140452 0.450208785,9.96510996 C-1.34010334,9.82338471 -2.68210129,8.20481366 -2.54554582,6.34672312 C-2.40899035,4.48863258 -0.878538497,3.0790203 0.94085148,3.24099201 C2.99764921,3.40296372 5.10303272,3.48394957 7.19553363,3.48394957 C8.98915843,3.48394957 10.4448913,4.99479416 10.4448913,6.85632278 C10.4448913,8.7178514 8.98915843,10.228314 7.19553363,10.228314" id="Path" transform="translate(3.944891, 6.728314) rotate(86.000000) translate(-3.944891, -6.728314) "></path>
                    </g>
                    <g id="Group-4-Copy-6" transform="translate(86.728314, 3.944891) rotate(90.000000) translate(-86.728314, -3.944891) translate(82.783423, -2.783423)">
                        <path d="M7.19553363,10.228314 C4.94071207,10.228314 2.66932717,10.140452 0.450208785,9.96510996 C-1.34010334,9.82338471 -2.68210129,8.20481366 -2.54554582,6.34672312 C-2.40899035,4.48863258 -0.878538497,3.0790203 0.94085148,3.24099201 C2.99764921,3.40296372 5.10303272,3.48394957 7.19553363,3.48394957 C8.98915843,3.48394957 10.4448913,4.99479416 10.4448913,6.85632278 C10.4448913,8.7178514 8.98915843,10.228314 7.19553363,10.228314" id="Path" transform="translate(3.944891, 6.728314) rotate(86.000000) translate(-3.944891, -6.728314) "></path>
                    </g>
                    <g id="Group-4-Copy-7" transform="translate(106.728314, 3.944891) rotate(90.000000) translate(-106.728314, -3.944891) translate(102.783423, -2.783423)">
                        <path d="M7.19553363,10.228314 C4.94071207,10.228314 2.66932717,10.140452 0.450208785,9.96510996 C-1.34010334,9.82338471 -2.68210129,8.20481366 -2.54554582,6.34672312 C-2.40899035,4.48863258 -0.878538497,3.0790203 0.94085148,3.24099201 C2.99764921,3.40296372 5.10303272,3.48394957 7.19553363,3.48394957 C8.98915843,3.48394957 10.4448913,4.99479416 10.4448913,6.85632278 C10.4448913,8.7178514 8.98915843,10.228314 7.19553363,10.228314" id="Path" transform="translate(3.944891, 6.728314) rotate(86.000000) translate(-3.944891, -6.728314) "></path>
                    </g>
                    <g id="Group-4-Copy-8" transform="translate(126.728314, 3.944891) rotate(90.000000) translate(-126.728314, -3.944891) translate(122.783423, -2.783423)">
                        <path d="M7.19553363,10.228314 C4.94071207,10.228314 2.66932717,10.140452 0.450208785,9.96510996 C-1.34010334,9.82338471 -2.68210129,8.20481366 -2.54554582,6.34672312 C-2.40899035,4.48863258 -0.878538497,3.0790203 0.94085148,3.24099201 C2.99764921,3.40296372 5.10303272,3.48394957 7.19553363,3.48394957 C8.98915843,3.48394957 10.4448913,4.99479416 10.4448913,6.85632278 C10.4448913,8.7178514 8.98915843,10.228314 7.19553363,10.228314" id="Path" transform="translate(3.944891, 6.728314) rotate(86.000000) translate(-3.944891, -6.728314) "></path>
                    </g>
                    <g id="Group-4-Copy-9" transform="translate(146.728314, 3.944891) rotate(90.000000) translate(-146.728314, -3.944891) translate(142.783423, -2.783423)">
                        <path d="M7.19553363,10.228314 C4.94071207,10.228314 2.66932717,10.140452 0.450208785,9.96510996 C-1.34010334,9.82338471 -2.68210129,8.20481366 -2.54554582,6.34672312 C-2.40899035,4.48863258 -0.878538497,3.0790203 0.94085148,3.24099201 C2.99764921,3.40296372 5.10303272,3.48394957 7.19553363,3.48394957 C8.98915843,3.48394957 10.4448913,4.99479416 10.4448913,6.85632278 C10.4448913,8.7178514 8.98915843,10.228314 7.19553363,10.228314" id="Path" transform="translate(3.944891, 6.728314) rotate(86.000000) translate(-3.944891, -6.728314) "></path>
                    </g>
                </g>
                <g id="Group-4-Copy" transform="translate(324.964912, 113.540945) rotate(182.000000) translate(-324.964912, -113.540945) translate(283.464912, 72.040945)" fill="#B0B6BB" fill-rule="nonzero">
                    <path d="M3.62305195,13 C1.87553412,13 0.394748725,11.7033502 0.263293196,9.99694146 C0.087891778,7.7740081 0,5.50542324 0,3.25009204 C0,1.45274844 1.51135644,0 3.37351572,0 C5.235675,0 6.74703145,1.45274844 6.74703145,3.25009204 C6.74703145,5.3430659 6.82804474,7.44561185 6.99007132,9.50287446 C7.13184458,11.2935912 5.73856883,12.8567868 3.88328804,12.9900598 C3.79501412,12.9966866 3.70750448,13 3.62305195,13" id="Path"></path>
                    <path d="M7.38532128,31.3356974 C5.96768923,31.3356974 4.65052828,30.4209876 4.19041629,28.9907698 C3.36723827,26.4324227 2.65861253,23.7827197 2.07709796,21.1092182 C1.68396671,19.2794146 2.83291468,17.4768643 4.64367798,17.0768946 C6.45444128,16.6838342 8.24503425,17.8357622 8.6450158,19.6621111 C9.17591425,22.1187385 9.82745413,24.555022 10.5802263,26.8999496 C11.1548905,28.682156 10.1836699,30.5933354 8.42009754,31.1694912 C8.07758241,31.2815749 7.72821698,31.3356974 7.38532128,31.3356974 M15.6429804,49 C14.5377983,49 13.455831,48.4510973 12.814186,47.4411931 C11.3562133,45.1507719 10.0021368,42.7582472 8.79267788,40.3323276 C7.95960498,38.6583663 8.6313152,36.6220525 10.2875661,35.7818092 C11.943817,34.9450205 13.9627534,35.6190576 14.7992515,37.2895643 C15.9010085,39.5055189 17.1374881,41.687695 18.4679691,43.7819699 C19.4692549,45.3542114 19.0156127,47.451557 17.4567883,48.4614612 C16.8962052,48.8268845 16.2678802,49 15.6429804,49" id="Shape"></path>
                    <path d="M27.758434,64.3953217 C26.970099,64.3953217 26.1749809,64.1085452 25.5396401,63.5253298 C23.5571206,61.6999315 21.6443152,59.7381017 19.8513428,57.6912438 C18.623997,56.2890534 18.737047,54.1293401 20.1041979,52.8705379 C21.4747403,51.6117358 23.5737013,51.7342536 24.8044385,53.133352 C26.434619,54.9997185 28.1774726,56.7872407 29.9806195,58.4421964 C31.3477704,59.7009985 31.4642118,61.8572334 30.2368661,63.2598103 C29.5811763,64.0130818 28.6696167,64.3953217 27.758434,64.3953217 M43.5925887,75.4628863 C43.09027,75.4628863 42.5811684,75.3434605 42.0988218,75.097652 C39.70367,73.859334 37.3586369,72.4876764 35.1232623,71.017077 C33.5797535,70.0002184 33.1305683,67.88843 34.125408,66.3018833 C35.1134646,64.7188149 37.1724813,64.2546389 38.7193816,65.2749759 C40.7584261,66.6191926 42.9007229,67.8749028 45.089747,69.0042304 C46.7331167,69.8502598 47.3918211,71.9009826 46.5665564,73.5829927 C45.9843491,74.7737723 44.8101368,75.4628863 43.5925887,75.4628863 M61.6756839,82 C61.4394095,82 61.2001204,81.9725591 60.9604545,81.9215423 C58.3392027,81.3313701 55.737923,80.6113368 53.2263297,79.7753561 C51.4800846,79.1952327 50.5217978,77.2712791 51.0874244,75.4798919 C51.653051,73.6888913 53.5323183,72.7095224 55.2755487,73.2861674 C57.5810143,74.0502607 59.9727747,74.7123202 62.3845072,75.254954 C64.1774796,75.6576779 65.3151391,77.4761194 64.9224789,79.3185234 C64.5795606,80.9116405 63.2056268,82 61.6756839,82" id="Shape"></path>
                    <path d="M79.7506424,83 C77.4958208,83 75.2244359,82.912138 73.0053175,82.736796 C71.2150054,82.5950707 69.8730075,80.9764997 70.0095629,79.1184091 C70.1461184,77.2603186 71.6765702,75.8507063 73.4959602,76.012678 C75.552758,76.1746497 77.6581415,76.2556356 79.7506424,76.2556356 C81.5442672,76.2556356 83,77.7664802 83,79.6280088 C83,81.4895374 81.5442672,83 79.7506424,83" id="Path"></path>
                </g>
                <g id="Group-3-Copy-3" transform="translate(326.000000, 181.000000)">
                    <text id="Admin" font-family="Poppins-Bold, Poppins" font-size="16" font-weight="bold" fill="#4B4B4B">
                        <tspan x="14" y="102">Admin</tspan>
                    </text>
                    <g id="Group-3-Copy-2" fill-rule="nonzero">
                        <path d="M84,10 C84,15.5231658 65.1968212,20 42,20 C18.8031788,20 0,15.5235434 0,10 C0,4.4768342 18.8031788,0 42,0 C65.1968212,0 84,4.4768342 84,10" id="Path" fill="#ED7161"></path>
                        <g id="Group-2" transform="translate(0.000000, 10.000000)">
                            <path d="M42,9.71465253 C18.8031788,9.71465253 0,5.36609469 0,0.000366812133 L0,19.4289382 C0,24.7942993 18.8031788,29.143224 42,29.143224 C65.1968212,29.143224 84,24.7942993 84,19.4285714 L84,0 C84,5.36572788 65.1968212,9.71465253 42,9.71465253" id="Path" fill="#C9554C"></path>
                            <path d="M42,29.1428571 C18.8031788,29.1428571 0,24.7942993 0,19.4285714 L0,38.8571429 C0,44.2225039 18.8031788,48.5714286 42,48.5714286 C65.1968212,48.5714286 84,44.2225039 84,38.8571429 L84,19.4285714 C84,24.7942993 65.1968212,29.1428571 42,29.1428571" id="Path" fill="#ECBA16"></path>
                            <path d="M42,48.5714286 C18.8031788,48.5714286 0,44.2228707 0,38.8571429 L0,58.2857143 C0,63.6510754 18.8031788,68 42,68 C65.1968212,68 84,63.6510754 84,58.2853475 L84,38.856776 C84,44.2225039 65.1968212,48.5714286 42,48.5714286" id="Path" fill="#25AE88"></path>
                        </g>
                    </g>
                </g>
            </g>
        </g>
    </g>
</svg>