<?xml version="1.0" encoding="UTF-8"?>
<svg width="373px" height="147px" viewBox="0 0 373 147" version="1.1" xmlns="http://www.w3.org/2000/svg" xmlns:xlink="http://www.w3.org/1999/xlink">
    <title>Group 9</title>
    <g id="Doc" stroke="none" stroke-width="1" fill="none" fill-rule="evenodd">
        <g id="Large" transform="translate(-633.000000, -504.000000)">
            <g id="Group-9" transform="translate(633.000000, 504.000000)">
                <rect id="Rectangle" x="0" y="0" width="373" height="147"></rect>
                <g id="Group-8" transform="translate(19.000000, 16.000000)">
                    <g id="Group-6" transform="translate(1.000000, 39.904000)">
                        <circle id="Oval" fill="#B2F6EA" cx="18" cy="18" r="18"></circle>
                        <g id="1" transform="translate(15.432000, 12.320000)" fill="#329896" fill-rule="nonzero">
                            <polygon id="Path" points="0 2.544 0 0 4.432 0 4.432 11.68 1.584 11.68 1.584 2.544"></polygon>
                        </g>
                    </g>
                    <g id="Group-6-Copy" transform="translate(45.000000, 39.904000)">
                        <circle id="Oval" fill="#B2F6EA" cx="18" cy="18" r="18"></circle>
                        <g id="2" transform="translate(13.592000, 12.064000)" fill="#329896" fill-rule="nonzero">
                            <path d="M0.032,9.744 C0.394666667,9.456 0.56,9.32266667 0.528,9.344 C1.57333333,8.48 2.39733333,7.77066667 3,7.216 C3.60266667,6.66133333 4.112,6.08 4.528,5.472 C4.944,4.864 5.152,4.272 5.152,3.696 C5.152,3.25866667 5.05066667,2.91733333 4.848,2.672 C4.64533333,2.42666667 4.34133333,2.304 3.936,2.304 C3.53066667,2.304 3.21333333,2.456 2.984,2.76 C2.75466667,3.064 2.64,3.49333333 2.64,4.048 L0,4.048 C0.0213333333,3.14133333 0.216,2.384 0.584,1.776 C0.952,1.168 1.43733333,0.72 2.04,0.432 C2.64266667,0.144 3.312,0 4.048,0 C5.31733333,0 6.27466667,0.325333333 6.92,0.976 C7.56533333,1.62666667 7.888,2.47466667 7.888,3.52 C7.888,4.66133333 7.49866667,5.72 6.72,6.696 C5.94133333,7.672 4.94933333,8.624 3.744,9.552 L8.064,9.552 L8.064,11.776 L0.032,11.776 L0.032,9.744 Z" id="Path"></path>
                        </g>
                    </g>
                    <g id="Group-6-Copy-2" transform="translate(89.000000, 39.904000)">
                        <circle id="Oval" fill="#E9D8FD" cx="18" cy="18" r="18"></circle>
                        <g id="3" transform="translate(13.672000, 12.048000)" fill="#6A45C1" fill-rule="nonzero">
                            <path d="M0.144,3.568 C0.186666667,2.42666667 0.56,1.54666667 1.264,0.928 C1.968,0.309333333 2.92266667,7.10542736e-15 4.128,7.10542736e-15 C4.928,7.10542736e-15 5.61333333,0.138666667 6.184,0.416 C6.75466667,0.693333333 7.18666667,1.072 7.48,1.552 C7.77333333,2.032 7.92,2.57066667 7.92,3.168 C7.92,3.872 7.744,4.44533333 7.392,4.888 C7.04,5.33066667 6.62933333,5.632 6.16,5.792 L6.16,5.856 C6.768,6.05866667 7.248,6.39466667 7.6,6.864 C7.952,7.33333333 8.128,7.936 8.128,8.672 C8.128,9.33333333 7.976,9.91733333 7.672,10.424 C7.368,10.9306667 6.92533333,11.328 6.344,11.616 C5.76266667,11.904 5.072,12.048 4.272,12.048 C2.992,12.048 1.97066667,11.7333333 1.208,11.104 C0.445333333,10.4746667 0.0426666667,9.52533333 0,8.256 L2.656,8.256 C2.66666667,8.72533333 2.8,9.096 3.056,9.368 C3.312,9.64 3.68533333,9.776 4.176,9.776 C4.592,9.776 4.91466667,9.656 5.144,9.416 C5.37333333,9.176 5.488,8.85866667 5.488,8.464 C5.488,7.952 5.32533333,7.58133333 5,7.352 C4.67466667,7.12266667 4.15466667,7.008 3.44,7.008 L2.928,7.008 L2.928,4.784 L3.44,4.784 C3.984,4.784 4.424,4.69066667 4.76,4.504 C5.096,4.31733333 5.264,3.984 5.264,3.504 C5.264,3.12 5.15733333,2.82133333 4.944,2.608 C4.73066667,2.39466667 4.43733333,2.288 4.064,2.288 C3.65866667,2.288 3.35733333,2.41066667 3.16,2.656 C2.96266667,2.90133333 2.848,3.20533333 2.816,3.568 L0.144,3.568 Z" id="Path"></path>
                        </g>
                    </g>
                    <g id="Group-6-Copy-3" transform="translate(133.000000, 39.904000)">
                        <circle id="Oval" fill="#E9D8FD" cx="18" cy="18" r="18"></circle>
                        <g id="4" transform="translate(13.784000, 12.480000)" fill="#6A45C1" fill-rule="nonzero">
                            <path d="M0,9.44 L0,7.232 L5.056,-7.10542736e-15 L8.112,-7.10542736e-15 L8.112,7.072 L9.424,7.072 L9.424,9.44 L8.112,9.44 L8.112,11.52 L5.376,11.52 L5.376,9.44 L0,9.44 Z M5.568,3.008 L2.88,7.072 L5.568,7.072 L5.568,3.008 Z" id="Shape"></path>
                        </g>
                    </g>
                    <g id="Group-6-Copy-4" transform="translate(177.000000, 39.904000)">
                        <circle id="Oval" fill="#E9D8FD" cx="18" cy="18" r="18"></circle>
                        <g id="5" transform="translate(14.344000, 12.304000)" fill="#6A45C1" fill-rule="nonzero">
                            <path d="M7.6,2.4 L2.608,2.4 L2.608,4.608 C2.82133333,4.37333333 3.12,4.18133333 3.504,4.032 C3.888,3.88266667 4.304,3.808 4.752,3.808 C5.552,3.808 6.216,3.98933333 6.744,4.352 C7.272,4.71466667 7.65866667,5.184 7.904,5.76 C8.14933333,6.336 8.272,6.96 8.272,7.632 C8.272,8.88 7.92,9.86933333 7.216,10.6 C6.512,11.3306667 5.52,11.696 4.24,11.696 C3.38666667,11.696 2.64533333,11.5493333 2.016,11.256 C1.38666667,10.9626667 0.901333333,10.5546667 0.56,10.032 C0.218666667,9.50933333 0.032,8.90666667 0,8.224 L2.672,8.224 C2.736,8.55466667 2.89066667,8.82933333 3.136,9.048 C3.38133333,9.26666667 3.71733333,9.376 4.144,9.376 C4.64533333,9.376 5.01866667,9.216 5.264,8.896 C5.50933333,8.576 5.632,8.14933333 5.632,7.616 C5.632,7.09333333 5.504,6.69333333 5.248,6.416 C4.992,6.13866667 4.61866667,6 4.128,6 C3.76533333,6 3.46666667,6.088 3.232,6.264 C2.99733333,6.44 2.84266667,6.672 2.768,6.96 L0.128,6.96 L0.128,0 L7.6,0 L7.6,2.4 Z" id="Path"></path>
                        </g>
                    </g>
                    <g id="Group-6-Copy-5" transform="translate(221.000000, 39.904000)">
                        <circle id="Oval" fill="#B2F6EA" cx="18" cy="18" r="18"></circle>
                        <g id="6" transform="translate(13.992000, 12.080000)" fill="#329896" fill-rule="nonzero">
                            <path d="M5.504,3.392 C5.41866667,2.99733333 5.26933333,2.70133333 5.056,2.504 C4.84266667,2.30666667 4.53866667,2.208 4.144,2.208 C3.536,2.208 3.09866667,2.472 2.832,3 C2.56533333,3.528 2.42666667,4.36266667 2.416,5.504 C2.65066667,5.13066667 2.98933333,4.83733333 3.432,4.624 C3.87466667,4.41066667 4.36266667,4.304 4.896,4.304 C5.94133333,4.304 6.78133333,4.63466667 7.416,5.296 C8.05066667,5.95733333 8.368,6.88 8.368,8.064 C8.368,8.84266667 8.21066667,9.52533333 7.896,10.112 C7.58133333,10.6986667 7.12266667,11.1573333 6.52,11.488 C5.91733333,11.8186667 5.20533333,11.984 4.384,11.984 C2.74133333,11.984 1.6,11.4693333 0.96,10.44 C0.32,9.41066667 0,7.93066667 0,6 C0,3.97333333 0.338666667,2.46666667 1.016,1.48 C1.69333333,0.493333333 2.77866667,0 4.272,0 C5.072,0 5.74666667,0.157333333 6.296,0.472 C6.84533333,0.786666667 7.26133333,1.2 7.544,1.712 C7.82666667,2.224 7.99466667,2.784 8.048,3.392 L5.504,3.392 Z M4.24,6.464 C3.78133333,6.464 3.4,6.6 3.096,6.872 C2.792,7.144 2.64,7.53066667 2.64,8.032 C2.64,8.544 2.78133333,8.944 3.064,9.232 C3.34666667,9.52 3.74933333,9.664 4.272,9.664 C4.74133333,9.664 5.112,9.52266667 5.384,9.24 C5.656,8.95733333 5.792,8.57066667 5.792,8.08 C5.792,7.57866667 5.65866667,7.184 5.392,6.896 C5.12533333,6.608 4.74133333,6.464 4.24,6.464 Z" id="Shape"></path>
                        </g>
                    </g>
                    <g id="Group-6-Copy-6" transform="translate(265.000000, 39.904000)">
                        <circle id="Oval" fill="#B2F6EA" cx="18" cy="18" r="18"></circle>
                        <g id="7" transform="translate(14.448000, 12.336000)" fill="#329896" fill-rule="nonzero">
                            <polygon id="Path" points="7.728 2.032 3.712 11.664 0.912 11.664 4.976 2.336 0 2.336 0 0 7.728 0"></polygon>
                        </g>
                    </g>
                    <line x1="0.5" y1="27.404" x2="0.5" y2="19.404" id="Line" stroke="#4A5568" stroke-width="2" stroke-linecap="square"></line>
                    <line x1="89.5" y1="96.404" x2="89.5" y2="88.404" id="Line-Copy" stroke="#4A5568" stroke-width="2" stroke-linecap="square"></line>
                    <line x1="0.5" y1="19.404" x2="80.5" y2="19.404" id="Line-2" stroke="#4A5568" stroke-width="2" stroke-linecap="square"></line>
                    <line x1="89.5" y1="96.404" x2="213" y2="96.904" id="Line-2-Copy" stroke="#4A5568" stroke-width="2" stroke-linecap="square"></line>
                    <line x1="80.5" y1="19.404" x2="80.5" y2="27.404" id="Line-3" stroke="#4A5568" stroke-width="2" stroke-linecap="square"></line>
                    <line x1="213.5" y1="88.904" x2="213.5" y2="96.904" id="Line-3-Copy-2" stroke="#4A5568" stroke-width="2" stroke-linecap="square"></line>
                    <g id="SKIP:-2" transform="translate(15.928000, -0.000000)" fill="#4A5568" fill-rule="nonzero">
                        <path d="M3.936,12.016 C3.18933333,12.016 2.51733333,11.8853333 1.92,11.624 C1.32266667,11.3626667 0.853333333,10.992 0.512,10.512 C0.170666667,10.032 0,9.472 0,8.832 L1.952,8.832 C1.99466667,9.312 2.184,9.70666667 2.52,10.016 C2.856,10.3253333 3.328,10.48 3.936,10.48 C4.56533333,10.48 5.056,10.328 5.408,10.024 C5.76,9.72 5.936,9.328 5.936,8.848 C5.936,8.47466667 5.82666667,8.17066667 5.608,7.936 C5.38933333,7.70133333 5.11733333,7.52 4.792,7.392 C4.46666667,7.264 4.016,7.12533333 3.44,6.976 C2.71466667,6.784 2.12533333,6.58933333 1.672,6.392 C1.21866667,6.19466667 0.832,5.888 0.512,5.472 C0.192,5.056 0.032,4.50133333 0.032,3.808 C0.032,3.168 0.192,2.608 0.512,2.128 C0.832,1.648 1.28,1.28 1.856,1.024 C2.432,0.768 3.09866667,0.64 3.856,0.64 C4.93333333,0.64 5.816,0.909333333 6.504,1.448 C7.192,1.98666667 7.57333333,2.72533333 7.648,3.664 L5.632,3.664 C5.6,3.25866667 5.408,2.912 5.056,2.624 C4.704,2.336 4.24,2.192 3.664,2.192 C3.14133333,2.192 2.71466667,2.32533333 2.384,2.592 C2.05333333,2.85866667 1.888,3.24266667 1.888,3.744 C1.888,4.08533333 1.992,4.36533333 2.2,4.584 C2.408,4.80266667 2.672,4.976 2.992,5.104 C3.312,5.232 3.74933333,5.37066667 4.304,5.52 C5.04,5.72266667 5.64,5.92533333 6.104,6.128 C6.568,6.33066667 6.96266667,6.64266667 7.288,7.064 C7.61333333,7.48533333 7.776,8.048 7.776,8.752 C7.776,9.31733333 7.624,9.85066667 7.32,10.352 C7.016,10.8533333 6.57333333,11.256 5.992,11.56 C5.41066667,11.864 4.72533333,12.016 3.936,12.016 Z" id="Path"></path>
                        <polygon id="Path" points="16.064 11.904 11.76 6.928 11.76 11.904 9.936 11.904 9.936 0.784 11.76 0.784 11.76 5.856 16.08 0.784 18.368 0.784 13.536 6.352 18.448 11.904"></polygon>
                        <polygon id="Path" points="21.888 0.784 21.888 11.904 20.064 11.904 20.064 0.784"></polygon>
                        <path d="M32.064,4.096 C32.064,4.66133333 31.9306667,5.19466667 31.664,5.696 C31.3973333,6.19733333 30.9706667,6.60533333 30.384,6.92 C29.7973333,7.23466667 29.0453333,7.392 28.128,7.392 L26.112,7.392 L26.112,11.904 L24.288,11.904 L24.288,0.784 L28.128,0.784 C28.9813333,0.784 29.704,0.930666667 30.296,1.224 C30.888,1.51733333 31.3306667,1.91466667 31.624,2.416 C31.9173333,2.91733333 32.064,3.47733333 32.064,4.096 Z M28.128,5.904 C28.8213333,5.904 29.3386667,5.74666667 29.68,5.432 C30.0213333,5.11733333 30.192,4.672 30.192,4.096 C30.192,2.88 29.504,2.272 28.128,2.272 L26.112,2.272 L26.112,5.904 L28.128,5.904 Z" id="Shape"></path>
                        <path d="M34.544,12.016 C34.2133333,12.016 33.936,11.904 33.712,11.68 C33.488,11.456 33.376,11.1786667 33.376,10.848 C33.376,10.5173333 33.488,10.24 33.712,10.016 C33.936,9.792 34.2133333,9.68 34.544,9.68 C34.864,9.68 35.136,9.792 35.36,10.016 C35.584,10.24 35.696,10.5173333 35.696,10.848 C35.696,11.1786667 35.584,11.456 35.36,11.68 C35.136,11.904 34.864,12.016 34.544,12.016 Z M34.544,5.296 C34.2133333,5.296 33.936,5.184 33.712,4.96 C33.488,4.736 33.376,4.45866667 33.376,4.128 C33.376,3.79733333 33.488,3.52 33.712,3.296 C33.936,3.072 34.2133333,2.96 34.544,2.96 C34.864,2.96 35.136,3.072 35.36,3.296 C35.584,3.52 35.696,3.79733333 35.696,4.128 C35.696,4.45866667 35.584,4.736 35.36,4.96 C35.136,5.184 34.864,5.296 34.544,5.296 Z" id="Shape"></path>
                        <path d="M42.656,9.424 C43.68,8.53866667 44.488,7.81066667 45.08,7.24 C45.672,6.66933333 46.1653333,6.07466667 46.56,5.456 C46.9546667,4.83733333 47.152,4.21866667 47.152,3.6 C47.152,2.96 47,2.45866667 46.696,2.096 C46.392,1.73333333 45.9146667,1.552 45.264,1.552 C44.6346667,1.552 44.1466667,1.752 43.8,2.152 C43.4533333,2.552 43.2693333,3.088 43.248,3.76 L41.488,3.76 C41.52,2.544 41.8853333,1.61333333 42.584,0.968 C43.2826667,0.322666667 44.1706667,0 45.248,0 C46.4106667,0 47.32,0.32 47.976,0.96 C48.632,1.6 48.96,2.45333333 48.96,3.52 C48.96,4.288 48.7653333,5.02666667 48.376,5.736 C47.9866667,6.44533333 47.5226667,7.08 46.984,7.64 C46.4453333,8.2 45.76,8.848 44.928,9.584 L44.208,10.224 L49.28,10.224 L49.28,11.744 L41.504,11.744 L41.504,10.416 L42.656,9.424 Z" id="Path"></path>
                    </g>
                    <g id="TAKE:-3" transform="translate(125.624000, 102.968000)" fill="#4A5568" fill-rule="nonzero">
                        <polygon id="Path" points="7.76 0.816 7.76 2.304 4.8 2.304 4.8 11.936 2.976 11.936 2.976 2.304 -1.42108547e-14 2.304 -1.42108547e-14 0.816"></polygon>
                        <path d="M16.304,9.664 L11.648,9.664 L10.848,11.936 L8.944,11.936 L12.928,0.8 L15.04,0.8 L19.024,11.936 L17.104,11.936 L16.304,9.664 Z M15.792,8.176 L13.984,3.008 L12.16,8.176 L15.792,8.176 Z" id="Shape"></path>
                        <polygon id="Path" points="26.88 11.936 22.576 6.96 22.576 11.936 20.752 11.936 20.752 0.816 22.576 0.816 22.576 5.888 26.896 0.816 29.184 0.816 24.352 6.384 29.264 11.936"></polygon>
                        <polygon id="Path" points="32.704 2.288 32.704 5.552 36.544 5.552 36.544 7.04 32.704 7.04 32.704 10.448 37.024 10.448 37.024 11.936 30.88 11.936 30.88 0.8 37.024 0.8 37.024 2.288"></polygon>
                        <path d="M40,12.048 C39.6693333,12.048 39.392,11.936 39.168,11.712 C38.944,11.488 38.832,11.2106667 38.832,10.88 C38.832,10.5493333 38.944,10.272 39.168,10.048 C39.392,9.824 39.6693333,9.712 40,9.712 C40.32,9.712 40.592,9.824 40.816,10.048 C41.04,10.272 41.152,10.5493333 41.152,10.88 C41.152,11.2106667 41.04,11.488 40.816,11.712 C40.592,11.936 40.32,12.048 40,12.048 Z M40,5.328 C39.6693333,5.328 39.392,5.216 39.168,4.992 C38.944,4.768 38.832,4.49066667 38.832,4.16 C38.832,3.82933333 38.944,3.552 39.168,3.328 C39.392,3.104 39.6693333,2.992 40,2.992 C40.32,2.992 40.592,3.104 40.816,3.328 C41.04,3.552 41.152,3.82933333 41.152,4.16 C41.152,4.49066667 41.04,4.768 40.816,4.992 C40.592,5.216 40.32,5.328 40,5.328 Z" id="Shape"></path>
                        <path d="M47.072,3.152 C47.136,2.16 47.5173333,1.38666667 48.216,0.832 C48.9146667,0.277333333 49.808,0 50.896,0 C51.6426667,0 52.288,0.133333333 52.832,0.4 C53.376,0.666666667 53.7866667,1.02933333 54.064,1.488 C54.3413333,1.94666667 54.48,2.464 54.48,3.04 C54.48,3.70133333 54.304,4.26666667 53.952,4.736 C53.6,5.20533333 53.1786667,5.52 52.688,5.68 L52.688,5.744 C53.3173333,5.936 53.808,6.28533333 54.16,6.792 C54.512,7.29866667 54.688,7.94666667 54.688,8.736 C54.688,9.36533333 54.544,9.92533333 54.256,10.416 C53.968,10.9066667 53.5413333,11.2933333 52.976,11.576 C52.4106667,11.8586667 51.7333333,12 50.944,12 C49.792,12 48.8453333,11.704 48.104,11.112 C47.3626667,10.52 46.9653333,9.66933333 46.912,8.56 L48.672,8.56 C48.7146667,9.12533333 48.9333333,9.58666667 49.328,9.944 C49.7226667,10.3013333 50.256,10.48 50.928,10.48 C51.5786667,10.48 52.08,10.3013333 52.432,9.944 C52.784,9.58666667 52.96,9.12533333 52.96,8.56 C52.96,7.81333333 52.7226667,7.28266667 52.248,6.968 C51.7733333,6.65333333 51.0453333,6.496 50.064,6.496 L49.648,6.496 L49.648,4.992 L50.08,4.992 C50.944,4.98133333 51.6026667,4.83733333 52.056,4.56 C52.5093333,4.28266667 52.736,3.84533333 52.736,3.248 C52.736,2.736 52.5706667,2.328 52.24,2.024 C51.9093333,1.72 51.44,1.568 50.832,1.568 C50.2346667,1.568 49.7706667,1.72 49.44,2.024 C49.1093333,2.328 48.912,2.704 48.848,3.152 L47.072,3.152 Z" id="Path"></path>
                    </g>
                    <g id="Group-7" transform="translate(313.000000, 55.904000)" fill="#E9E9E9">
                        <circle id="Oval" cx="2" cy="2" r="2"></circle>
                        <circle id="Oval-Copy" cx="11" cy="2" r="2"></circle>
                        <circle id="Oval-Copy-2" cx="20" cy="2" r="2"></circle>
                    </g>
                </g>
            </g>
        </g>
    </g>
</svg>