<?xml version="1.0" encoding="UTF-8"?>
<svg width="373px" height="147px" viewBox="0 0 373 147" version="1.1" xmlns="http://www.w3.org/2000/svg" xmlns:xlink="http://www.w3.org/1999/xlink">
    <title>Group 8</title>
    <g id="Doc" stroke="none" stroke-width="1" fill="none" fill-rule="evenodd">
        <g id="Large" transform="translate(-594.000000, -504.000000)">
            <g id="Group-8" transform="translate(594.000000, 504.000000)">
                <g id="Group-6" transform="translate(50.000000, 54.000000)">
                    <circle id="Oval" fill="#B2F6EA" cx="18" cy="18" r="18"></circle>
                    <g id="84" transform="translate(8.864000, 12.080000)" fill="#329896" fill-rule="nonzero">
                        <path d="M1.776,5.648 C0.773333333,5.11466667 0.272,4.27733333 0.272,3.136 C0.272,2.56 0.421333333,2.03466667 0.72,1.56 C1.01866667,1.08533333 1.472,0.706666667 2.08,0.424 C2.688,0.141333333 3.43466667,-3.55271368e-15 4.32,-3.55271368e-15 C5.20533333,-3.55271368e-15 5.94933333,0.141333333 6.552,0.424 C7.15466667,0.706666667 7.60533333,1.08533333 7.904,1.56 C8.20266667,2.03466667 8.352,2.56 8.352,3.136 C8.352,3.712 8.216,4.21333333 7.944,4.64 C7.672,5.06666667 7.30666667,5.40266667 6.848,5.648 C7.424,5.92533333 7.86666667,6.30666667 8.176,6.792 C8.48533333,7.27733333 8.64,7.84533333 8.64,8.496 C8.64,9.25333333 8.448,9.90666667 8.064,10.456 C7.68,11.0053333 7.16,11.424 6.504,11.712 C5.848,12 5.12,12.144 4.32,12.144 C3.52,12.144 2.792,12 2.136,11.712 C1.48,11.424 0.96,11.0053333 0.576,10.456 C0.192,9.90666667 0,9.25333333 0,8.496 C0,7.83466667 0.154666667,7.26133333 0.464,6.776 C0.773333333,6.29066667 1.21066667,5.91466667 1.776,5.648 Z M5.696,3.552 C5.696,3.11466667 5.57066667,2.776 5.32,2.536 C5.06933333,2.296 4.736,2.176 4.32,2.176 C3.904,2.176 3.57066667,2.29866667 3.32,2.544 C3.06933333,2.78933333 2.944,3.13066667 2.944,3.568 C2.944,3.984 3.072,4.312 3.328,4.552 C3.584,4.792 3.91466667,4.912 4.32,4.912 C4.72533333,4.912 5.056,4.78933333 5.312,4.544 C5.568,4.29866667 5.696,3.968 5.696,3.552 Z M4.32,6.832 C3.81866667,6.832 3.41333333,6.968 3.104,7.24 C2.79466667,7.512 2.64,7.888 2.64,8.368 C2.64,8.816 2.792,9.184 3.096,9.472 C3.4,9.76 3.808,9.904 4.32,9.904 C4.832,9.904 5.23466667,9.76 5.528,9.472 C5.82133333,9.184 5.968,8.816 5.968,8.368 C5.968,7.89866667 5.816,7.52533333 5.512,7.248 C5.208,6.97066667 4.81066667,6.832 4.32,6.832 Z" id="Shape"></path>
                        <path d="M10.288,9.84 L10.288,7.632 L15.344,0.4 L18.4,0.4 L18.4,7.472 L19.712,7.472 L19.712,9.84 L18.4,9.84 L18.4,11.92 L15.664,11.92 L15.664,9.84 L10.288,9.84 Z M15.856,3.408 L13.168,7.472 L15.856,7.472 L15.856,3.408 Z" id="Shape"></path>
                    </g>
                </g>
                <g id="Group-6-Copy" transform="translate(94.000000, 54.000000)">
                    <circle id="Oval" fill="#B2F6EA" cx="18" cy="18" r="18"></circle>
                    <g id="85" transform="translate(8.864000, 12.080000)" fill="#329896" fill-rule="nonzero">
                        <path d="M1.776,5.648 C0.773333333,5.11466667 0.272,4.27733333 0.272,3.136 C0.272,2.56 0.421333333,2.03466667 0.72,1.56 C1.01866667,1.08533333 1.472,0.706666667 2.08,0.424 C2.688,0.141333333 3.43466667,-3.55271368e-15 4.32,-3.55271368e-15 C5.20533333,-3.55271368e-15 5.94933333,0.141333333 6.552,0.424 C7.15466667,0.706666667 7.60533333,1.08533333 7.904,1.56 C8.20266667,2.03466667 8.352,2.56 8.352,3.136 C8.352,3.712 8.216,4.21333333 7.944,4.64 C7.672,5.06666667 7.30666667,5.40266667 6.848,5.648 C7.424,5.92533333 7.86666667,6.30666667 8.176,6.792 C8.48533333,7.27733333 8.64,7.84533333 8.64,8.496 C8.64,9.25333333 8.448,9.90666667 8.064,10.456 C7.68,11.0053333 7.16,11.424 6.504,11.712 C5.848,12 5.12,12.144 4.32,12.144 C3.52,12.144 2.792,12 2.136,11.712 C1.48,11.424 0.96,11.0053333 0.576,10.456 C0.192,9.90666667 0,9.25333333 0,8.496 C0,7.83466667 0.154666667,7.26133333 0.464,6.776 C0.773333333,6.29066667 1.21066667,5.91466667 1.776,5.648 Z M5.696,3.552 C5.696,3.11466667 5.57066667,2.776 5.32,2.536 C5.06933333,2.296 4.736,2.176 4.32,2.176 C3.904,2.176 3.57066667,2.29866667 3.32,2.544 C3.06933333,2.78933333 2.944,3.13066667 2.944,3.568 C2.944,3.984 3.072,4.312 3.328,4.552 C3.584,4.792 3.91466667,4.912 4.32,4.912 C4.72533333,4.912 5.056,4.78933333 5.312,4.544 C5.568,4.29866667 5.696,3.968 5.696,3.552 Z M4.32,6.832 C3.81866667,6.832 3.41333333,6.968 3.104,7.24 C2.79466667,7.512 2.64,7.888 2.64,8.368 C2.64,8.816 2.792,9.184 3.096,9.472 C3.4,9.76 3.808,9.904 4.32,9.904 C4.832,9.904 5.23466667,9.76 5.528,9.472 C5.82133333,9.184 5.968,8.816 5.968,8.368 C5.968,7.89866667 5.816,7.52533333 5.512,7.248 C5.208,6.97066667 4.81066667,6.832 4.32,6.832 Z" id="Shape"></path>
                        <path d="M18.448,2.624 L13.456,2.624 L13.456,4.832 C13.6693333,4.59733333 13.968,4.40533333 14.352,4.256 C14.736,4.10666667 15.152,4.032 15.6,4.032 C16.4,4.032 17.064,4.21333333 17.592,4.576 C18.12,4.93866667 18.5066667,5.408 18.752,5.984 C18.9973333,6.56 19.12,7.184 19.12,7.856 C19.12,9.104 18.768,10.0933333 18.064,10.824 C17.36,11.5546667 16.368,11.92 15.088,11.92 C14.2346667,11.92 13.4933333,11.7733333 12.864,11.48 C12.2346667,11.1866667 11.7493333,10.7786667 11.408,10.256 C11.0666667,9.73333333 10.88,9.13066667 10.848,8.448 L13.52,8.448 C13.584,8.77866667 13.7386667,9.05333333 13.984,9.272 C14.2293333,9.49066667 14.5653333,9.6 14.992,9.6 C15.4933333,9.6 15.8666667,9.44 16.112,9.12 C16.3573333,8.8 16.48,8.37333333 16.48,7.84 C16.48,7.31733333 16.352,6.91733333 16.096,6.64 C15.84,6.36266667 15.4666667,6.224 14.976,6.224 C14.6133333,6.224 14.3146667,6.312 14.08,6.488 C13.8453333,6.664 13.6906667,6.896 13.616,7.184 L10.976,7.184 L10.976,0.224 L18.448,0.224 L18.448,2.624 Z" id="Path"></path>
                    </g>
                </g>
                <g id="Group-6-Copy-2" transform="translate(138.000000, 54.000000)">
                    <circle id="Oval" fill="#E9D8FD" cx="18" cy="18" r="18"></circle>
                    <g id="86" transform="translate(8.864000, 12.080000)" fill="#6A45C1" fill-rule="nonzero">
                        <path d="M1.776,5.648 C0.773333333,5.11466667 0.272,4.27733333 0.272,3.136 C0.272,2.56 0.421333333,2.03466667 0.72,1.56 C1.01866667,1.08533333 1.472,0.706666667 2.08,0.424 C2.688,0.141333333 3.43466667,0 4.32,0 C5.20533333,0 5.94933333,0.141333333 6.552,0.424 C7.15466667,0.706666667 7.60533333,1.08533333 7.904,1.56 C8.20266667,2.03466667 8.352,2.56 8.352,3.136 C8.352,3.712 8.216,4.21333333 7.944,4.64 C7.672,5.06666667 7.30666667,5.40266667 6.848,5.648 C7.424,5.92533333 7.86666667,6.30666667 8.176,6.792 C8.48533333,7.27733333 8.64,7.84533333 8.64,8.496 C8.64,9.25333333 8.448,9.90666667 8.064,10.456 C7.68,11.0053333 7.16,11.424 6.504,11.712 C5.848,12 5.12,12.144 4.32,12.144 C3.52,12.144 2.792,12 2.136,11.712 C1.48,11.424 0.96,11.0053333 0.576,10.456 C0.192,9.90666667 7.10542736e-15,9.25333333 7.10542736e-15,8.496 C7.10542736e-15,7.83466667 0.154666667,7.26133333 0.464,6.776 C0.773333333,6.29066667 1.21066667,5.91466667 1.776,5.648 Z M5.696,3.552 C5.696,3.11466667 5.57066667,2.776 5.32,2.536 C5.06933333,2.296 4.736,2.176 4.32,2.176 C3.904,2.176 3.57066667,2.29866667 3.32,2.544 C3.06933333,2.78933333 2.944,3.13066667 2.944,3.568 C2.944,3.984 3.072,4.312 3.328,4.552 C3.584,4.792 3.91466667,4.912 4.32,4.912 C4.72533333,4.912 5.056,4.78933333 5.312,4.544 C5.568,4.29866667 5.696,3.968 5.696,3.552 Z M4.32,6.832 C3.81866667,6.832 3.41333333,6.968 3.104,7.24 C2.79466667,7.512 2.64,7.888 2.64,8.368 C2.64,8.816 2.792,9.184 3.096,9.472 C3.4,9.76 3.808,9.904 4.32,9.904 C4.832,9.904 5.23466667,9.76 5.528,9.472 C5.82133333,9.184 5.968,8.816 5.968,8.368 C5.968,7.89866667 5.816,7.52533333 5.512,7.248 C5.208,6.97066667 4.81066667,6.832 4.32,6.832 Z" id="Shape"></path>
                        <path d="M16,3.392 C15.9146667,2.99733333 15.7653333,2.70133333 15.552,2.504 C15.3386667,2.30666667 15.0346667,2.208 14.64,2.208 C14.032,2.208 13.5946667,2.472 13.328,3 C13.0613333,3.528 12.9226667,4.36266667 12.912,5.504 C13.1466667,5.13066667 13.4853333,4.83733333 13.928,4.624 C14.3706667,4.41066667 14.8586667,4.304 15.392,4.304 C16.4373333,4.304 17.2773333,4.63466667 17.912,5.296 C18.5466667,5.95733333 18.864,6.88 18.864,8.064 C18.864,8.84266667 18.7066667,9.52533333 18.392,10.112 C18.0773333,10.6986667 17.6186667,11.1573333 17.016,11.488 C16.4133333,11.8186667 15.7013333,11.984 14.88,11.984 C13.2373333,11.984 12.096,11.4693333 11.456,10.44 C10.816,9.41066667 10.496,7.93066667 10.496,6 C10.496,3.97333333 10.8346667,2.46666667 11.512,1.48 C12.1893333,0.493333333 13.2746667,0 14.768,0 C15.568,0 16.2426667,0.157333333 16.792,0.472 C17.3413333,0.786666667 17.7573333,1.2 18.04,1.712 C18.3226667,2.224 18.4906667,2.784 18.544,3.392 L16,3.392 Z M14.736,6.464 C14.2773333,6.464 13.896,6.6 13.592,6.872 C13.288,7.144 13.136,7.53066667 13.136,8.032 C13.136,8.544 13.2773333,8.944 13.56,9.232 C13.8426667,9.52 14.2453333,9.664 14.768,9.664 C15.2373333,9.664 15.608,9.52266667 15.88,9.24 C16.152,8.95733333 16.288,8.57066667 16.288,8.08 C16.288,7.57866667 16.1546667,7.184 15.888,6.896 C15.6213333,6.608 15.2373333,6.464 14.736,6.464 Z" id="Shape"></path>
                    </g>
                </g>
                <g id="Group-6-Copy-3" transform="translate(182.000000, 54.000000)">
                    <circle id="Oval" fill="#E9D8FD" cx="18" cy="18" r="18"></circle>
                    <g id="87" transform="translate(9.864000, 12.080000)" fill="#6A45C1" fill-rule="nonzero">
                        <path d="M1.776,5.648 C0.773333333,5.11466667 0.272,4.27733333 0.272,3.136 C0.272,2.56 0.421333333,2.03466667 0.72,1.56 C1.01866667,1.08533333 1.472,0.706666667 2.08,0.424 C2.688,0.141333333 3.43466667,-3.55271368e-15 4.32,-3.55271368e-15 C5.20533333,-3.55271368e-15 5.94933333,0.141333333 6.552,0.424 C7.15466667,0.706666667 7.60533333,1.08533333 7.904,1.56 C8.20266667,2.03466667 8.352,2.56 8.352,3.136 C8.352,3.712 8.216,4.21333333 7.944,4.64 C7.672,5.06666667 7.30666667,5.40266667 6.848,5.648 C7.424,5.92533333 7.86666667,6.30666667 8.176,6.792 C8.48533333,7.27733333 8.64,7.84533333 8.64,8.496 C8.64,9.25333333 8.448,9.90666667 8.064,10.456 C7.68,11.0053333 7.16,11.424 6.504,11.712 C5.848,12 5.12,12.144 4.32,12.144 C3.52,12.144 2.792,12 2.136,11.712 C1.48,11.424 0.96,11.0053333 0.576,10.456 C0.192,9.90666667 0,9.25333333 0,8.496 C0,7.83466667 0.154666667,7.26133333 0.464,6.776 C0.773333333,6.29066667 1.21066667,5.91466667 1.776,5.648 Z M5.696,3.552 C5.696,3.11466667 5.57066667,2.776 5.32,2.536 C5.06933333,2.296 4.736,2.176 4.32,2.176 C3.904,2.176 3.57066667,2.29866667 3.32,2.544 C3.06933333,2.78933333 2.944,3.13066667 2.944,3.568 C2.944,3.984 3.072,4.312 3.328,4.552 C3.584,4.792 3.91466667,4.912 4.32,4.912 C4.72533333,4.912 5.056,4.78933333 5.312,4.544 C5.568,4.29866667 5.696,3.968 5.696,3.552 Z M4.32,6.832 C3.81866667,6.832 3.41333333,6.968 3.104,7.24 C2.79466667,7.512 2.64,7.888 2.64,8.368 C2.64,8.816 2.792,9.184 3.096,9.472 C3.4,9.76 3.808,9.904 4.32,9.904 C4.832,9.904 5.23466667,9.76 5.528,9.472 C5.82133333,9.184 5.968,8.816 5.968,8.368 C5.968,7.89866667 5.816,7.52533333 5.512,7.248 C5.208,6.97066667 4.81066667,6.832 4.32,6.832 Z" id="Shape"></path>
                        <polygon id="Path" points="17.68 2.288 13.664 11.92 10.864 11.92 14.928 2.592 9.952 2.592 9.952 0.256 17.68 0.256"></polygon>
                    </g>
                </g>
                <g id="Group-6-Copy-4" transform="translate(226.000000, 54.000000)">
                    <circle id="Oval" fill="#E9D8FD" cx="18" cy="18" r="18"></circle>
                    <g id="88" transform="translate(8.864000, 12.080000)" fill="#6A45C1" fill-rule="nonzero">
                        <path d="M1.776,5.648 C0.773333333,5.11466667 0.272,4.27733333 0.272,3.136 C0.272,2.56 0.421333333,2.03466667 0.72,1.56 C1.01866667,1.08533333 1.472,0.706666667 2.08,0.424 C2.688,0.141333333 3.43466667,-3.55271368e-15 4.32,-3.55271368e-15 C5.20533333,-3.55271368e-15 5.94933333,0.141333333 6.552,0.424 C7.15466667,0.706666667 7.60533333,1.08533333 7.904,1.56 C8.20266667,2.03466667 8.352,2.56 8.352,3.136 C8.352,3.712 8.216,4.21333333 7.944,4.64 C7.672,5.06666667 7.30666667,5.40266667 6.848,5.648 C7.424,5.92533333 7.86666667,6.30666667 8.176,6.792 C8.48533333,7.27733333 8.64,7.84533333 8.64,8.496 C8.64,9.25333333 8.448,9.90666667 8.064,10.456 C7.68,11.0053333 7.16,11.424 6.504,11.712 C5.848,12 5.12,12.144 4.32,12.144 C3.52,12.144 2.792,12 2.136,11.712 C1.48,11.424 0.96,11.0053333 0.576,10.456 C0.192,9.90666667 0,9.25333333 0,8.496 C0,7.83466667 0.154666667,7.26133333 0.464,6.776 C0.773333333,6.29066667 1.21066667,5.91466667 1.776,5.648 Z M5.696,3.552 C5.696,3.11466667 5.57066667,2.776 5.32,2.536 C5.06933333,2.296 4.736,2.176 4.32,2.176 C3.904,2.176 3.57066667,2.29866667 3.32,2.544 C3.06933333,2.78933333 2.944,3.13066667 2.944,3.568 C2.944,3.984 3.072,4.312 3.328,4.552 C3.584,4.792 3.91466667,4.912 4.32,4.912 C4.72533333,4.912 5.056,4.78933333 5.312,4.544 C5.568,4.29866667 5.696,3.968 5.696,3.552 Z M4.32,6.832 C3.81866667,6.832 3.41333333,6.968 3.104,7.24 C2.79466667,7.512 2.64,7.888 2.64,8.368 C2.64,8.816 2.792,9.184 3.096,9.472 C3.4,9.76 3.808,9.904 4.32,9.904 C4.832,9.904 5.23466667,9.76 5.528,9.472 C5.82133333,9.184 5.968,8.816 5.968,8.368 C5.968,7.89866667 5.816,7.52533333 5.512,7.248 C5.208,6.97066667 4.81066667,6.832 4.32,6.832 Z" id="Shape"></path>
                        <path d="M12.144,5.648 C11.1413333,5.11466667 10.64,4.27733333 10.64,3.136 C10.64,2.56 10.7893333,2.03466667 11.088,1.56 C11.3866667,1.08533333 11.84,0.706666667 12.448,0.424 C13.056,0.141333333 13.8026667,-3.55271368e-15 14.688,-3.55271368e-15 C15.5733333,-3.55271368e-15 16.3173333,0.141333333 16.92,0.424 C17.5226667,0.706666667 17.9733333,1.08533333 18.272,1.56 C18.5706667,2.03466667 18.72,2.56 18.72,3.136 C18.72,3.712 18.584,4.21333333 18.312,4.64 C18.04,5.06666667 17.6746667,5.40266667 17.216,5.648 C17.792,5.92533333 18.2346667,6.30666667 18.544,6.792 C18.8533333,7.27733333 19.008,7.84533333 19.008,8.496 C19.008,9.25333333 18.816,9.90666667 18.432,10.456 C18.048,11.0053333 17.528,11.424 16.872,11.712 C16.216,12 15.488,12.144 14.688,12.144 C13.888,12.144 13.16,12 12.504,11.712 C11.848,11.424 11.328,11.0053333 10.944,10.456 C10.56,9.90666667 10.368,9.25333333 10.368,8.496 C10.368,7.83466667 10.5226667,7.26133333 10.832,6.776 C11.1413333,6.29066667 11.5786667,5.91466667 12.144,5.648 Z M16.064,3.552 C16.064,3.11466667 15.9386667,2.776 15.688,2.536 C15.4373333,2.296 15.104,2.176 14.688,2.176 C14.272,2.176 13.9386667,2.29866667 13.688,2.544 C13.4373333,2.78933333 13.312,3.13066667 13.312,3.568 C13.312,3.984 13.44,4.312 13.696,4.552 C13.952,4.792 14.2826667,4.912 14.688,4.912 C15.0933333,4.912 15.424,4.78933333 15.68,4.544 C15.936,4.29866667 16.064,3.968 16.064,3.552 Z M14.688,6.832 C14.1866667,6.832 13.7813333,6.968 13.472,7.24 C13.1626667,7.512 13.008,7.888 13.008,8.368 C13.008,8.816 13.16,9.184 13.464,9.472 C13.768,9.76 14.176,9.904 14.688,9.904 C15.2,9.904 15.6026667,9.76 15.896,9.472 C16.1893333,9.184 16.336,8.816 16.336,8.368 C16.336,7.89866667 16.184,7.52533333 15.88,7.248 C15.576,6.97066667 15.1786667,6.832 14.688,6.832 Z" id="Shape"></path>
                    </g>
                </g>
                <g id="Group-6-Copy-5" transform="translate(270.000000, 54.000000)">
                    <circle id="Oval" fill="#B2F6EA" cx="18" cy="18" r="18"></circle>
                    <g id="89" transform="translate(8.864000, 12.048000)" fill="#329896" fill-rule="nonzero">
                        <path d="M1.776,5.68 C0.773333333,5.14666667 0.272,4.30933333 0.272,3.168 C0.272,2.592 0.421333333,2.06666667 0.72,1.592 C1.01866667,1.11733333 1.472,0.738666667 2.08,0.456 C2.688,0.173333333 3.43466667,0.032 4.32,0.032 C5.20533333,0.032 5.94933333,0.173333333 6.552,0.456 C7.15466667,0.738666667 7.60533333,1.11733333 7.904,1.592 C8.20266667,2.06666667 8.352,2.592 8.352,3.168 C8.352,3.744 8.216,4.24533333 7.944,4.672 C7.672,5.09866667 7.30666667,5.43466667 6.848,5.68 C7.424,5.95733333 7.86666667,6.33866667 8.176,6.824 C8.48533333,7.30933333 8.64,7.87733333 8.64,8.528 C8.64,9.28533333 8.448,9.93866667 8.064,10.488 C7.68,11.0373333 7.16,11.456 6.504,11.744 C5.848,12.032 5.12,12.176 4.32,12.176 C3.52,12.176 2.792,12.032 2.136,11.744 C1.48,11.456 0.96,11.0373333 0.576,10.488 C0.192,9.93866667 0,9.28533333 0,8.528 C0,7.86666667 0.154666667,7.29333333 0.464,6.808 C0.773333333,6.32266667 1.21066667,5.94666667 1.776,5.68 Z M5.696,3.584 C5.696,3.14666667 5.57066667,2.808 5.32,2.568 C5.06933333,2.328 4.736,2.208 4.32,2.208 C3.904,2.208 3.57066667,2.33066667 3.32,2.576 C3.06933333,2.82133333 2.944,3.16266667 2.944,3.6 C2.944,4.016 3.072,4.344 3.328,4.584 C3.584,4.824 3.91466667,4.944 4.32,4.944 C4.72533333,4.944 5.056,4.82133333 5.312,4.576 C5.568,4.33066667 5.696,4 5.696,3.584 Z M4.32,6.864 C3.81866667,6.864 3.41333333,7 3.104,7.272 C2.79466667,7.544 2.64,7.92 2.64,8.4 C2.64,8.848 2.792,9.216 3.096,9.504 C3.4,9.792 3.808,9.936 4.32,9.936 C4.832,9.936 5.23466667,9.792 5.528,9.504 C5.82133333,9.216 5.968,8.848 5.968,8.4 C5.968,7.93066667 5.816,7.55733333 5.512,7.28 C5.208,7.00266667 4.81066667,6.864 4.32,6.864 Z" id="Shape"></path>
                        <path d="M13.168,8.528 C13.328,9.37066667 13.8186667,9.792 14.64,9.792 C15.2053333,9.792 15.6053333,9.54133333 15.84,9.04 C16.0746667,8.53866667 16.192,7.72266667 16.192,6.592 C15.9573333,6.92266667 15.6373333,7.17866667 15.232,7.36 C14.8266667,7.54133333 14.3733333,7.632 13.872,7.632 C13.1893333,7.632 12.5813333,7.49066667 12.048,7.208 C11.5146667,6.92533333 11.096,6.504 10.792,5.944 C10.488,5.384 10.336,4.704 10.336,3.904 C10.336,3.11466667 10.4986667,2.42666667 10.824,1.84 C11.1493333,1.25333333 11.6133333,0.8 12.216,0.48 C12.8186667,0.16 13.5306667,3.55271368e-15 14.352,3.55271368e-15 C15.9306667,3.55271368e-15 17.0346667,0.490666667 17.664,1.472 C18.2933333,2.45333333 18.608,3.89866667 18.608,5.808 C18.608,7.19466667 18.4826667,8.33866667 18.232,9.24 C17.9813333,10.1413333 17.56,10.8266667 16.968,11.296 C16.376,11.7653333 15.568,12 14.544,12 C13.7333333,12 13.0426667,11.84 12.472,11.52 C11.9013333,11.2 11.464,10.7786667 11.16,10.256 C10.856,9.73333333 10.6826667,9.15733333 10.64,8.528 L13.168,8.528 Z M14.496,5.472 C14.944,5.472 15.3013333,5.336 15.568,5.064 C15.8346667,4.792 15.968,4.42133333 15.968,3.952 C15.968,3.44 15.8293333,3.04533333 15.552,2.768 C15.2746667,2.49066667 14.9013333,2.352 14.432,2.352 C13.9626667,2.352 13.592,2.49333333 13.32,2.776 C13.048,3.05866667 12.912,3.44533333 12.912,3.936 C12.912,4.39466667 13.048,4.76533333 13.32,5.048 C13.592,5.33066667 13.984,5.472 14.496,5.472 Z" id="Shape"></path>
                    </g>
                </g>
                <g id="Group-6-Copy-6" transform="translate(314.000000, 54.000000)">
                    <circle id="Oval" fill="#B2F6EA" cx="18" cy="18" r="18"></circle>
                    <g id="90" transform="translate(8.832000, 12.048000)" fill="#329896" fill-rule="nonzero">
                        <path d="M2.832,8.528 C2.992,9.37066667 3.48266667,9.792 4.304,9.792 C4.86933333,9.792 5.26933333,9.54133333 5.504,9.04 C5.73866667,8.53866667 5.856,7.72266667 5.856,6.592 C5.62133333,6.92266667 5.30133333,7.17866667 4.896,7.36 C4.49066667,7.54133333 4.03733333,7.632 3.536,7.632 C2.85333333,7.632 2.24533333,7.49066667 1.712,7.208 C1.17866667,6.92533333 0.76,6.504 0.456,5.944 C0.152,5.384 0,4.704 0,3.904 C0,3.11466667 0.162666667,2.42666667 0.488,1.84 C0.813333333,1.25333333 1.27733333,0.8 1.88,0.48 C2.48266667,0.16 3.19466667,3.55271368e-15 4.016,3.55271368e-15 C5.59466667,3.55271368e-15 6.69866667,0.490666667 7.328,1.472 C7.95733333,2.45333333 8.272,3.89866667 8.272,5.808 C8.272,7.19466667 8.14666667,8.33866667 7.896,9.24 C7.64533333,10.1413333 7.224,10.8266667 6.632,11.296 C6.04,11.7653333 5.232,12 4.208,12 C3.39733333,12 2.70666667,11.84 2.136,11.52 C1.56533333,11.2 1.128,10.7786667 0.824,10.256 C0.52,9.73333333 0.346666667,9.15733333 0.304,8.528 L2.832,8.528 Z M4.16,5.472 C4.608,5.472 4.96533333,5.336 5.232,5.064 C5.49866667,4.792 5.632,4.42133333 5.632,3.952 C5.632,3.44 5.49333333,3.04533333 5.216,2.768 C4.93866667,2.49066667 4.56533333,2.352 4.096,2.352 C3.62666667,2.352 3.256,2.49333333 2.984,2.776 C2.712,3.05866667 2.576,3.44533333 2.576,3.936 C2.576,4.39466667 2.712,4.76533333 2.984,5.048 C3.256,5.33066667 3.648,5.472 4.16,5.472 Z" id="Shape"></path>
                        <path d="M9.728,5.952 C9.728,4.11733333 10.0826667,2.672 10.792,1.616 C11.5013333,0.56 12.6453333,0.032 14.224,0.032 C15.8026667,0.032 16.9466667,0.56 17.656,1.616 C18.3653333,2.672 18.72,4.11733333 18.72,5.952 C18.72,7.808 18.3653333,9.264 17.656,10.32 C16.9466667,11.376 15.8026667,11.904 14.224,11.904 C12.6453333,11.904 11.5013333,11.376 10.792,10.32 C10.0826667,9.264 9.728,7.808 9.728,5.952 Z M16.032,5.952 C16.032,4.87466667 15.9146667,4.04533333 15.68,3.464 C15.4453333,2.88266667 14.96,2.592 14.224,2.592 C13.488,2.592 13.0026667,2.88266667 12.768,3.464 C12.5333333,4.04533333 12.416,4.87466667 12.416,5.952 C12.416,6.67733333 12.4586667,7.27733333 12.544,7.752 C12.6293333,8.22666667 12.8026667,8.61066667 13.064,8.904 C13.3253333,9.19733333 13.712,9.344 14.224,9.344 C14.736,9.344 15.1226667,9.19733333 15.384,8.904 C15.6453333,8.61066667 15.8186667,8.22666667 15.904,7.752 C15.9893333,7.27733333 16.032,6.67733333 16.032,5.952 Z" id="Shape"></path>
                    </g>
                </g>
                <line x1="270.5" y1="41.5" x2="270.5" y2="33.5" id="Line-Copy-2" stroke="#4A5568" stroke-width="2" stroke-linecap="square"></line>
                <line x1="138.5" y1="110.5" x2="138.5" y2="102.5" id="Line-Copy" stroke="#4A5568" stroke-width="2" stroke-linecap="square"></line>
                <line x1="270.5" y1="33.5" x2="350.5" y2="33.5" id="Line-2-Copy-2" stroke="#4A5568" stroke-width="2" stroke-linecap="square"></line>
                <line x1="138.5" y1="110.5" x2="262" y2="111" id="Line-2-Copy" stroke="#4A5568" stroke-width="2" stroke-linecap="square"></line>
                <line x1="350.5" y1="33.5" x2="350.5" y2="41.5" id="Line-3-Copy" stroke="#4A5568" stroke-width="2" stroke-linecap="square"></line>
                <line x1="262.5" y1="103" x2="262.5" y2="111" id="Line-3-Copy-2" stroke="#4A5568" stroke-width="2" stroke-linecap="square"></line>
                <g id="SKIP:-2" transform="translate(285.928000, 14.096000)" fill="#4A5568" fill-rule="nonzero">
                    <path d="M3.936,12.016 C3.18933333,12.016 2.51733333,11.8853333 1.92,11.624 C1.32266667,11.3626667 0.853333333,10.992 0.512,10.512 C0.170666667,10.032 0,9.472 0,8.832 L1.952,8.832 C1.99466667,9.312 2.184,9.70666667 2.52,10.016 C2.856,10.3253333 3.328,10.48 3.936,10.48 C4.56533333,10.48 5.056,10.328 5.408,10.024 C5.76,9.72 5.936,9.328 5.936,8.848 C5.936,8.47466667 5.82666667,8.17066667 5.608,7.936 C5.38933333,7.70133333 5.11733333,7.52 4.792,7.392 C4.46666667,7.264 4.016,7.12533333 3.44,6.976 C2.71466667,6.784 2.12533333,6.58933333 1.672,6.392 C1.21866667,6.19466667 0.832,5.888 0.512,5.472 C0.192,5.056 0.032,4.50133333 0.032,3.808 C0.032,3.168 0.192,2.608 0.512,2.128 C0.832,1.648 1.28,1.28 1.856,1.024 C2.432,0.768 3.09866667,0.64 3.856,0.64 C4.93333333,0.64 5.816,0.909333333 6.504,1.448 C7.192,1.98666667 7.57333333,2.72533333 7.648,3.664 L5.632,3.664 C5.6,3.25866667 5.408,2.912 5.056,2.624 C4.704,2.336 4.24,2.192 3.664,2.192 C3.14133333,2.192 2.71466667,2.32533333 2.384,2.592 C2.05333333,2.85866667 1.888,3.24266667 1.888,3.744 C1.888,4.08533333 1.992,4.36533333 2.2,4.584 C2.408,4.80266667 2.672,4.976 2.992,5.104 C3.312,5.232 3.74933333,5.37066667 4.304,5.52 C5.04,5.72266667 5.64,5.92533333 6.104,6.128 C6.568,6.33066667 6.96266667,6.64266667 7.288,7.064 C7.61333333,7.48533333 7.776,8.048 7.776,8.752 C7.776,9.31733333 7.624,9.85066667 7.32,10.352 C7.016,10.8533333 6.57333333,11.256 5.992,11.56 C5.41066667,11.864 4.72533333,12.016 3.936,12.016 Z" id="Path"></path>
                    <polygon id="Path" points="16.064 11.904 11.76 6.928 11.76 11.904 9.936 11.904 9.936 0.784 11.76 0.784 11.76 5.856 16.08 0.784 18.368 0.784 13.536 6.352 18.448 11.904"></polygon>
                    <polygon id="Path" points="21.888 0.784 21.888 11.904 20.064 11.904 20.064 0.784"></polygon>
                    <path d="M32.064,4.096 C32.064,4.66133333 31.9306667,5.19466667 31.664,5.696 C31.3973333,6.19733333 30.9706667,6.60533333 30.384,6.92 C29.7973333,7.23466667 29.0453333,7.392 28.128,7.392 L26.112,7.392 L26.112,11.904 L24.288,11.904 L24.288,0.784 L28.128,0.784 C28.9813333,0.784 29.704,0.930666667 30.296,1.224 C30.888,1.51733333 31.3306667,1.91466667 31.624,2.416 C31.9173333,2.91733333 32.064,3.47733333 32.064,4.096 Z M28.128,5.904 C28.8213333,5.904 29.3386667,5.74666667 29.68,5.432 C30.0213333,5.11733333 30.192,4.672 30.192,4.096 C30.192,2.88 29.504,2.272 28.128,2.272 L26.112,2.272 L26.112,5.904 L28.128,5.904 Z" id="Shape"></path>
                    <path d="M34.544,12.016 C34.2133333,12.016 33.936,11.904 33.712,11.68 C33.488,11.456 33.376,11.1786667 33.376,10.848 C33.376,10.5173333 33.488,10.24 33.712,10.016 C33.936,9.792 34.2133333,9.68 34.544,9.68 C34.864,9.68 35.136,9.792 35.36,10.016 C35.584,10.24 35.696,10.5173333 35.696,10.848 C35.696,11.1786667 35.584,11.456 35.36,11.68 C35.136,11.904 34.864,12.016 34.544,12.016 Z M34.544,5.296 C34.2133333,5.296 33.936,5.184 33.712,4.96 C33.488,4.736 33.376,4.45866667 33.376,4.128 C33.376,3.79733333 33.488,3.52 33.712,3.296 C33.936,3.072 34.2133333,2.96 34.544,2.96 C34.864,2.96 35.136,3.072 35.36,3.296 C35.584,3.52 35.696,3.79733333 35.696,4.128 C35.696,4.45866667 35.584,4.736 35.36,4.96 C35.136,5.184 34.864,5.296 34.544,5.296 Z" id="Shape"></path>
                    <path d="M42.656,9.424 C43.68,8.53866667 44.488,7.81066667 45.08,7.24 C45.672,6.66933333 46.1653333,6.07466667 46.56,5.456 C46.9546667,4.83733333 47.152,4.21866667 47.152,3.6 C47.152,2.96 47,2.45866667 46.696,2.096 C46.392,1.73333333 45.9146667,1.552 45.264,1.552 C44.6346667,1.552 44.1466667,1.752 43.8,2.152 C43.4533333,2.552 43.2693333,3.088 43.248,3.76 L41.488,3.76 C41.52,2.544 41.8853333,1.61333333 42.584,0.968 C43.2826667,0.322666667 44.1706667,0 45.248,0 C46.4106667,0 47.32,0.32 47.976,0.96 C48.632,1.6 48.96,2.45333333 48.96,3.52 C48.96,4.288 48.7653333,5.02666667 48.376,5.736 C47.9866667,6.44533333 47.5226667,7.08 46.984,7.64 C46.4453333,8.2 45.76,8.848 44.928,9.584 L44.208,10.224 L49.28,10.224 L49.28,11.744 L41.504,11.744 L41.504,10.416 L42.656,9.424 Z" id="Path"></path>
                </g>
                <g id="TAKE:--3" transform="translate(173.624000, 117.064000)" fill="#4A5568" fill-rule="nonzero">
                    <polygon id="Path" points="7.76 0.816 7.76 2.304 4.8 2.304 4.8 11.936 2.976 11.936 2.976 2.304 0 2.304 0 0.816"></polygon>
                    <path d="M16.304,9.664 L11.648,9.664 L10.848,11.936 L8.944,11.936 L12.928,0.8 L15.04,0.8 L19.024,11.936 L17.104,11.936 L16.304,9.664 Z M15.792,8.176 L13.984,3.008 L12.16,8.176 L15.792,8.176 Z" id="Shape"></path>
                    <polygon id="Path" points="26.88 11.936 22.576 6.96 22.576 11.936 20.752 11.936 20.752 0.816 22.576 0.816 22.576 5.888 26.896 0.816 29.184 0.816 24.352 6.384 29.264 11.936"></polygon>
                    <polygon id="Path" points="32.704 2.288 32.704 5.552 36.544 5.552 36.544 7.04 32.704 7.04 32.704 10.448 37.024 10.448 37.024 11.936 30.88 11.936 30.88 0.8 37.024 0.8 37.024 2.288"></polygon>
                    <path d="M40,12.048 C39.6693333,12.048 39.392,11.936 39.168,11.712 C38.944,11.488 38.832,11.2106667 38.832,10.88 C38.832,10.5493333 38.944,10.272 39.168,10.048 C39.392,9.824 39.6693333,9.712 40,9.712 C40.32,9.712 40.592,9.824 40.816,10.048 C41.04,10.272 41.152,10.5493333 41.152,10.88 C41.152,11.2106667 41.04,11.488 40.816,11.712 C40.592,11.936 40.32,12.048 40,12.048 Z M40,5.328 C39.6693333,5.328 39.392,5.216 39.168,4.992 C38.944,4.768 38.832,4.49066667 38.832,4.16 C38.832,3.82933333 38.944,3.552 39.168,3.328 C39.392,3.104 39.6693333,2.992 40,2.992 C40.32,2.992 40.592,3.104 40.816,3.328 C41.04,3.552 41.152,3.82933333 41.152,4.16 C41.152,4.49066667 41.04,4.768 40.816,4.992 C40.592,5.216 40.32,5.328 40,5.328 Z" id="Shape"></path>
                    <polygon id="Path" points="54.112 5.376 54.112 6.912 47.536 6.912 47.536 5.376"></polygon>
                    <path d="M56.432,3.152 C56.496,2.16 56.8773333,1.38666667 57.576,0.832 C58.2746667,0.277333333 59.168,0 60.256,0 C61.0026667,0 61.648,0.133333333 62.192,0.4 C62.736,0.666666667 63.1466667,1.02933333 63.424,1.488 C63.7013333,1.94666667 63.84,2.464 63.84,3.04 C63.84,3.70133333 63.664,4.26666667 63.312,4.736 C62.96,5.20533333 62.5386667,5.52 62.048,5.68 L62.048,5.744 C62.6773333,5.936 63.168,6.28533333 63.52,6.792 C63.872,7.29866667 64.048,7.94666667 64.048,8.736 C64.048,9.36533333 63.904,9.92533333 63.616,10.416 C63.328,10.9066667 62.9013333,11.2933333 62.336,11.576 C61.7706667,11.8586667 61.0933333,12 60.304,12 C59.152,12 58.2053333,11.704 57.464,11.112 C56.7226667,10.52 56.3253333,9.66933333 56.272,8.56 L58.032,8.56 C58.0746667,9.12533333 58.2933333,9.58666667 58.688,9.944 C59.0826667,10.3013333 59.616,10.48 60.288,10.48 C60.9386667,10.48 61.44,10.3013333 61.792,9.944 C62.144,9.58666667 62.32,9.12533333 62.32,8.56 C62.32,7.81333333 62.0826667,7.28266667 61.608,6.968 C61.1333333,6.65333333 60.4053333,6.496 59.424,6.496 L59.008,6.496 L59.008,4.992 L59.44,4.992 C60.304,4.98133333 60.9626667,4.83733333 61.416,4.56 C61.8693333,4.28266667 62.096,3.84533333 62.096,3.248 C62.096,2.736 61.9306667,2.328 61.6,2.024 C61.2693333,1.72 60.8,1.568 60.192,1.568 C59.5946667,1.568 59.1306667,1.72 58.8,2.024 C58.4693333,2.328 58.272,2.704 58.208,3.152 L56.432,3.152 Z" id="Path"></path>
                </g>
                <g id="Group-7" transform="translate(16.000000, 70.000000)" fill="#E9E9E9">
                    <circle id="Oval" cx="2" cy="2" r="2"></circle>
                    <circle id="Oval-Copy" cx="11" cy="2" r="2"></circle>
                    <circle id="Oval-Copy-2" cx="20" cy="2" r="2"></circle>
                </g>
                <rect id="Rectangle" x="0" y="0" width="373" height="147"></rect>
            </g>
        </g>
    </g>
</svg>